# xmcd
#
# Track frame offsets:
#  150
#  17534
#  44750
#  66390
#
# Disc length: 1225 seconds
#
# Revision: 0
# Processed by: cddbd v1.5.1PL2 Copyright (c) Steve Scherf et al.
# Submitted via: Collectorz.com_Music_Collector 6.9
#
DISCID=3304c704
DTITLE=Stream of Passion - Out in the Real World
DYEAR=2006
DGENRE=Métal progressif
TTITLE0=Out in the Real World (Single Edit)
TTITLE1=Computer Eyes (Stream of Passion version)
TTITLE2=Pain (Stream of Passion version)
TTITLE3=When the Levee Breaks
EXTD=
EXTT0=
EXTT1=
EXTT2=
EXTT3=
PLAYORDER=
